<?xml version="1.0" encoding="utf-8"?>
<!-- Generator: Adobe Illustrator 25.2.1, SVG Export Plug-In . SVG Version: 6.00 Build 0)  -->
<svg version="1.1" id="Layer_1" xmlns="http://www.w3.org/2000/svg" xmlns:xlink="http://www.w3.org/1999/xlink" x="0px" y="0px"
	 viewBox="0 0 48 48" style="enable-background:new 0 0 48 48;" xml:space="preserve">
<style type="text/css">
	.st0{clip-path:url(#SVGID_2_);}
</style>
<g>
	<defs>
		<rect id="SVGID_1_" x="0.8" y="0.6" width="46.4" height="46.7"/>
	</defs>
	<clipPath id="SVGID_2_">
		<use xlink:href="#SVGID_1_"  style="overflow:visible;"/>
	</clipPath>
	<g id="Grupo_12" class="st0">
		<path id="Trazado_4" d="M25.8,21.7L25.8,21.7L25.8,21.7L25.8,21.7z M43.8,0.6H4.2C2.4,0.6,0.8,2.1,0.8,4v40c0,1.9,1.6,3.4,3.4,3.3
			h39.6c1.9,0,3.4-1.5,3.4-3.3V4C47.2,2.1,45.6,0.6,43.8,0.6 M14.9,39.7h-7V18.7h7V39.7z M11.4,15.8L11.4,15.8
			c-2.1,0.1-3.8-1.4-3.9-3.4c-0.1-2,1.4-3.8,3.4-3.9c0.2,0,0.4,0,0.6,0c2-0.1,3.8,1.4,3.9,3.4c0.1,2-1.4,3.8-3.4,3.9
			C11.7,15.8,11.5,15.8,11.4,15.8 M40.1,39.7h-7V28.5c0-2.8-1-4.8-3.6-4.8c-1.6,0-3.1,1-3.6,2.6c-0.2,0.6-0.3,1.1-0.2,1.7v11.8h-7
			c0,0,0.1-19.1,0-21.1h7v3c1.3-2.2,3.7-3.6,6.3-3.5c4.6,0,8.1,3,8.1,9.5L40.1,39.7z"/>
	</g>
</g>
</svg>
